<svg width="200" height="200" viewBox="0 0 200 200" xmlns="http://www.w3.org/2000/svg">
  <circle cx="100" cy="100" r="78" fill="none" stroke="#B8962E" stroke-width="1.7"/>
  <circle cx="100" cy="100" r="69" fill="none" stroke="#B8962E" stroke-width="0.55" opacity="0.36"/>
  <line x1="100" y1="13"  x2="100" y2="4"   stroke="#B8962E" stroke-width="1.1" opacity="0.5"/>
  <line x1="100" y1="187" x2="100" y2="196" stroke="#B8962E" stroke-width="1.1" opacity="0.5"/>
  <line x1="13"  y1="100" x2="4"   y2="100" stroke="#B8962E" stroke-width="1.1" opacity="0.5"/>
  <line x1="187" y1="100" x2="196" y2="100" stroke="#B8962E" stroke-width="1.1" opacity="0.5"/>
  <circle cx="100" cy="22" r="5"   fill="none" stroke="#B8962E" stroke-width="1.5"/>
  <circle cx="100" cy="22" r="2"   fill="#B8962E"/>
  <line x1="100" y1="27"  x2="56"  y2="157" stroke="#B8962E" stroke-width="2.8" stroke-linecap="round"/>
  <line x1="56"  y1="157" x2="50"  y2="173" stroke="#B8962E" stroke-width="2.8" stroke-linecap="round"/>
  <line x1="100" y1="27"  x2="144" y2="157" stroke="#B8962E" stroke-width="2.8" stroke-linecap="round"/>
  <line x1="144" y1="157" x2="150" y2="173" stroke="#B8962E" stroke-width="2.8" stroke-linecap="round"/>
  <line x1="69"  y1="102" x2="131" y2="102" stroke="#B8962E" stroke-width="1.4" stroke-linecap="square"/>
  <line x1="69"  y1="95"  x2="69"  y2="109" stroke="#B8962E" stroke-width="1.4" stroke-linecap="square"/>
  <line x1="131" y1="95"  x2="131" y2="109" stroke="#B8962E" stroke-width="1.4" stroke-linecap="square"/>
  <polygon points="100,95 105,102 100,109 95,102" fill="#B8962E"/>
  <line x1="90"  y1="64"  x2="79"  y2="76"  stroke="#B8962E" stroke-width="0.9" opacity="0.6" stroke-linecap="square"/>
  <line x1="77"  y1="109" x2="66"  y2="121" stroke="#B8962E" stroke-width="0.9" opacity="0.6" stroke-linecap="square"/>
  <line x1="110" y1="64"  x2="121" y2="76"  stroke="#B8962E" stroke-width="0.9" opacity="0.6" stroke-linecap="square"/>
  <line x1="123" y1="109" x2="134" y2="121" stroke="#B8962E" stroke-width="0.9" opacity="0.6" stroke-linecap="square"/>
  <path d="M 84,43 A 20,20 0 0 1 116,43" fill="none" stroke="#B8962E" stroke-width="0.8" opacity="0.45"/>
  <line x1="100" y1="27"  x2="100" y2="95"  stroke="#B8962E" stroke-width="0.7" opacity="0.3" stroke-dasharray="3,3"/>
</svg>
