<svg width="100%" viewBox="0 0 680 1720" xmlns="http://www.w3.org/2000/svg">
<defs>


<!-- ═══════════════════════════════════════════════════════ -->
<!-- BASE MARK — all elements centered at origin (0,0)      -->
<!-- Laurel tips reach x≈±155, top of dome y≈-130           -->
<!-- Base of stylobate y≈+80, shield bottom y≈+100          -->
<!-- Total height ≈ 230px, width ≈ 310px at scale 1.0       -->
<!-- ═══════════════════════════════════════════════════════ -->

<!-- LEFT LAUREL -->
<g id="LL">
  <path d="M-71,99 C-83,79 -103,52 -124,-35" stroke="#C9A84C" stroke-width="1.8" fill="none" stroke-linecap="round"/>
  <circle cx="-65" cy="102" r="4.5" fill="#C9A84C"/>
  <circle cx="-73" cy="110" r="3" fill="#C9A84C"/>
  <circle cx="-57" cy="110" r="3" fill="#C9A84C"/>
  <circle cx="-65" cy="117" r="2" fill="#C9A84C"/>
  <g transform="rotate(-13,-80,70)"><ellipse cx="-80" cy="70" rx="18" ry="5.5" fill="#DDD0A0"/><line x1="-98" y1="70" x2="-62" y2="70" stroke="#A88830" stroke-width="1"/></g>
  <g transform="rotate(8,-85,84)"><ellipse cx="-85" cy="84" rx="17" ry="5.2" fill="#C8A840"/><line x1="-102" y1="84" x2="-68" y2="84" stroke="#8A6A10" stroke-width="1"/></g>
  <g transform="rotate(-28,-97,57)"><ellipse cx="-97" cy="57" rx="17" ry="5.2" fill="#DDD0A0"/><line x1="-114" y1="57" x2="-80" y2="57" stroke="#A88830" stroke-width="1"/></g>
  <g transform="rotate(-3,-102,70)"><ellipse cx="-102" cy="70" rx="16" ry="4.8" fill="#C8A840"/><line x1="-118" y1="70" x2="-86" y2="70" stroke="#8A6A10" stroke-width="1"/></g>
  <g transform="rotate(-43,-104,43)"><ellipse cx="-104" cy="43" rx="16" ry="4.8" fill="#DDD0A0"/><line x1="-120" y1="43" x2="-88" y2="43" stroke="#A88830" stroke-width="1"/></g>
  <g transform="rotate(-13,-109,56)"><ellipse cx="-109" cy="56" rx="15" ry="4.4" fill="#C8A840"/><line x1="-124" y1="56" x2="-94" y2="56" stroke="#8A6A10" stroke-width="1"/></g>
  <g transform="rotate(-58,-111,29)"><ellipse cx="-111" cy="29" rx="15" ry="4.4" fill="#DDD0A0"/><line x1="-126" y1="29" x2="-96" y2="29" stroke="#A88830" stroke-width="1"/></g>
  <g transform="rotate(-23,-115,41)"><ellipse cx="-115" cy="41" rx="14" ry="4.1" fill="#C8A840"/><line x1="-129" y1="41" x2="-101" y2="41" stroke="#8A6A10" stroke-width="1"/></g>
  <g transform="rotate(-71,-116,14)"><ellipse cx="-116" cy="14" rx="14" ry="4.1" fill="#DDD0A0"/><line x1="-130" y1="14" x2="-102" y2="14" stroke="#A88830" stroke-width="1"/></g>
  <g transform="rotate(-32,-119,26)"><ellipse cx="-119" cy="26" rx="13" ry="3.8" fill="#C8A840"/><line x1="-132" y1="26" x2="-106" y2="26" stroke="#8A6A10" stroke-width="1"/></g>
  <g transform="rotate(-80,-119,0)"><ellipse cx="-119" cy="0" rx="13" ry="3.8" fill="#DDD0A0"/><line x1="-132" y1="0" x2="-106" y2="0" stroke="#A88830" stroke-width="0.9"/></g>
  <g transform="rotate(-41,-121,12)"><ellipse cx="-121" cy="12" rx="12" ry="3.5" fill="#C8A840"/><line x1="-133" y1="12" x2="-109" y2="12" stroke="#8A6A10" stroke-width="0.9"/></g>
  <g transform="rotate(-86,-121,-13)"><ellipse cx="-121" cy="-13" rx="11.5" ry="3.3" fill="#DDD0A0"/><line x1="-132.5" y1="-13" x2="-109.5" y2="-13" stroke="#A88830" stroke-width="0.8"/></g>
  <g transform="rotate(-48,-122,-2)"><ellipse cx="-122" cy="-2" rx="11" ry="3.1" fill="#C8A840"/><line x1="-133" y1="-2" x2="-111" y2="-2" stroke="#8A6A10" stroke-width="0.8"/></g>
  <g transform="rotate(-90,-122,-26)"><ellipse cx="-122" cy="-26" rx="10.5" ry="3" fill="#DDD0A0"/><line x1="-132.5" y1="-26" x2="-111.5" y2="-26" stroke="#A88830" stroke-width="0.7"/></g>
</g>

<!-- RIGHT LAUREL -->
<g id="LR">
  <path d="M71,99 C83,79 103,52 124,-35" stroke="#C9A84C" stroke-width="1.8" fill="none" stroke-linecap="round"/>
  <circle cx="65" cy="102" r="4.5" fill="#C9A84C"/>
  <circle cx="73" cy="110" r="3" fill="#C9A84C"/>
  <circle cx="57" cy="110" r="3" fill="#C9A84C"/>
  <circle cx="65" cy="117" r="2" fill="#C9A84C"/>
  <g transform="rotate(13,80,70)"><ellipse cx="80" cy="70" rx="18" ry="5.5" fill="#DDD0A0"/><line x1="62" y1="70" x2="98" y2="70" stroke="#A88830" stroke-width="1"/></g>
  <g transform="rotate(-8,85,84)"><ellipse cx="85" cy="84" rx="17" ry="5.2" fill="#C8A840"/><line x1="68" y1="84" x2="102" y2="84" stroke="#8A6A10" stroke-width="1"/></g>
  <g transform="rotate(28,97,57)"><ellipse cx="97" cy="57" rx="17" ry="5.2" fill="#DDD0A0"/><line x1="80" y1="57" x2="114" y2="57" stroke="#A88830" stroke-width="1"/></g>
  <g transform="rotate(3,102,70)"><ellipse cx="102" cy="70" rx="16" ry="4.8" fill="#C8A840"/><line x1="86" y1="70" x2="118" y2="70" stroke="#8A6A10" stroke-width="1"/></g>
  <g transform="rotate(43,104,43)"><ellipse cx="104" cy="43" rx="16" ry="4.8" fill="#DDD0A0"/><line x1="88" y1="43" x2="120" y2="43" stroke="#A88830" stroke-width="1"/></g>
  <g transform="rotate(13,109,56)"><ellipse cx="109" cy="56" rx="15" ry="4.4" fill="#C8A840"/><line x1="94" y1="56" x2="124" y2="56" stroke="#8A6A10" stroke-width="1"/></g>
  <g transform="rotate(58,111,29)"><ellipse cx="111" cy="29" rx="15" ry="4.4" fill="#DDD0A0"/><line x1="96" y1="29" x2="126" y2="29" stroke="#A88830" stroke-width="1"/></g>
  <g transform="rotate(23,115,41)"><ellipse cx="115" cy="41" rx="14" ry="4.1" fill="#C8A840"/><line x1="101" y1="41" x2="129" y2="41" stroke="#8A6A10" stroke-width="1"/></g>
  <g transform="rotate(71,116,14)"><ellipse cx="116" cy="14" rx="14" ry="4.1" fill="#DDD0A0"/><line x1="102" y1="14" x2="130" y2="14" stroke="#A88830" stroke-width="1"/></g>
  <g transform="rotate(32,119,26)"><ellipse cx="119" cy="26" rx="13" ry="3.8" fill="#C8A840"/><line x1="106" y1="26" x2="132" y2="26" stroke="#8A6A10" stroke-width="1"/></g>
  <g transform="rotate(80,119,0)"><ellipse cx="119" cy="0" rx="13" ry="3.8" fill="#DDD0A0"/><line x1="106" y1="0" x2="132" y2="0" stroke="#A88830" stroke-width="0.9"/></g>
  <g transform="rotate(41,121,12)"><ellipse cx="121" cy="12" rx="12" ry="3.5" fill="#C8A840"/><line x1="109" y1="12" x2="133" y2="12" stroke="#8A6A10" stroke-width="0.9"/></g>
  <g transform="rotate(86,121,-13)"><ellipse cx="121" cy="-13" rx="11.5" ry="3.3" fill="#DDD0A0"/><line x1="109.5" y1="-13" x2="132.5" y2="-13" stroke="#A88830" stroke-width="0.8"/></g>
  <g transform="rotate(48,122,-2)"><ellipse cx="122" cy="-2" rx="11" ry="3.1" fill="#C8A840"/><line x1="111" y1="-2" x2="133" y2="-2" stroke="#8A6A10" stroke-width="0.8"/></g>
  <g transform="rotate(90,122,-26)"><ellipse cx="122" cy="-26" rx="10.5" ry="3" fill="#DDD0A0"/><line x1="111.5" y1="-26" x2="132.5" y2="-26" stroke="#A88830" stroke-width="0.7"/></g>
</g>

<!-- CAPITOL — cream version -->
<g id="CAP">
  <!-- finial -->
  <rect x="-3" y="-131" width="6" height="12" rx="1.5" fill="#EDE4CC"/>
  <ellipse cx="0" cy="-131" rx="5.5" ry="3.5" fill="#EDE4CC"/>
  <!-- dome -->
  <path d="M-40,-78 Q-40,-125 0,-131 Q40,-125 40,-78 Z" fill="#EDE4CC"/>
  <path d="M-24,-78 Q-25,-104 0,-128" stroke="#D4CCA8" stroke-width="0.9" fill="none"/>
  <path d="M-12,-78 Q-12,-113 0,-129" stroke="#D4CCA8" stroke-width="0.9" fill="none"/>
  <path d="M12,-78 Q12,-113 0,-129" stroke="#D4CCA8" stroke-width="0.9" fill="none"/>
  <path d="M24,-78 Q25,-104 0,-128" stroke="#D4CCA8" stroke-width="0.9" fill="none"/>
  <!-- drum -->
  <rect x="-30" y="-80" width="60" height="10" rx="1" fill="#E8DEB8"/>
  <rect x="-30" y="-80" width="60" height="2.5" fill="#C9A84C" opacity="0.6"/>
  <!-- entablature -->
  <rect x="-76" y="-70" width="152" height="8" fill="#EDE4CC"/>
  <!-- gold frieze -->
  <rect x="-80" y="-62" width="160" height="5.5" fill="#C9A84C"/>
  <!-- cornice -->
  <rect x="-84" y="-56.5" width="168" height="7" fill="#EDE4CC"/>
  <!-- pediment -->
  <polygon points="-88,-49.5 0,-78 88,-49.5" fill="#E6DDB2"/>
  <polyline points="-88,-49.5 0,-76 88,-49.5" stroke="#C9A84C" stroke-width="1.5" fill="none" stroke-linejoin="round"/>
  <!-- cornice base -->
  <rect x="-92" y="-49.5" width="184" height="7" fill="#EDE4CC"/>
  <rect x="-92" y="-49.5" width="184" height="2" fill="#C9A84C" opacity="0.4"/>
  <!-- door + windows BEHIND columns -->
  <rect x="-14" y="-33" width="28" height="52" fill="#3A2880"/>
  <path d="M-14,-33 Q-14,-43 0,-43 Q14,-43 14,-33" fill="#3A2880"/>
  <rect x="-68" y="-28" width="17" height="37" fill="#3A2880"/>
  <path d="M-68,-28 Q-68,-36 -59.5,-36 Q-51,-36 -51,-28" fill="#3A2880"/>
  <rect x="51" y="-28" width="17" height="37" fill="#3A2880"/>
  <path d="M51,-28 Q51,-36 59.5,-36 Q68,-36 68,-28" fill="#3A2880"/>
  <!-- 8 caps — positions: -88,-68,-48,-28, +14,+34,+54,+74 (gap in center for door) -->
  <rect x="-92" y="-42.5" width="16" height="4.5" fill="#EDE4CC"/>
  <rect x="-72" y="-42.5" width="16" height="4.5" fill="#EDE4CC"/>
  <rect x="-52" y="-42.5" width="16" height="4.5" fill="#EDE4CC"/>
  <rect x="-32" y="-42.5" width="16" height="4.5" fill="#EDE4CC"/>
  <rect x="16" y="-42.5" width="16" height="4.5" fill="#EDE4CC"/>
  <rect x="36" y="-42.5" width="16" height="4.5" fill="#EDE4CC"/>
  <rect x="56" y="-42.5" width="16" height="4.5" fill="#EDE4CC"/>
  <rect x="76" y="-42.5" width="16" height="4.5" fill="#EDE4CC"/>
  <!-- 8 shafts ON TOP -->
  <rect x="-90" y="-38" width="12" height="62" fill="#E8DEB8"/>
  <rect x="-70" y="-38" width="12" height="62" fill="#E8DEB8"/>
  <rect x="-50" y="-38" width="12" height="62" fill="#E8DEB8"/>
  <rect x="-30" y="-38" width="12" height="62" fill="#E8DEB8"/>
  <rect x="18" y="-38" width="12" height="62" fill="#E8DEB8"/>
  <rect x="38" y="-38" width="12" height="62" fill="#E8DEB8"/>
  <rect x="58" y="-38" width="12" height="62" fill="#E8DEB8"/>
  <rect x="78" y="-38" width="12" height="62" fill="#E8DEB8"/>
  <!-- 8 bases -->
  <rect x="-92" y="24" width="16" height="4.5" fill="#EDE4CC"/>
  <rect x="-72" y="24" width="16" height="4.5" fill="#EDE4CC"/>
  <rect x="-52" y="24" width="16" height="4.5" fill="#EDE4CC"/>
  <rect x="-32" y="24" width="16" height="4.5" fill="#EDE4CC"/>
  <rect x="16" y="24" width="16" height="4.5" fill="#EDE4CC"/>
  <rect x="36" y="24" width="16" height="4.5" fill="#EDE4CC"/>
  <rect x="56" y="24" width="16" height="4.5" fill="#EDE4CC"/>
  <rect x="76" y="24" width="16" height="4.5" fill="#EDE4CC"/>
  <!-- stylobate 3 steps -->
  <rect x="-100" y="28.5" width="200" height="6" fill="#EDE4CC"/>
  <rect x="-106" y="34.5" width="212" height="5.5" fill="#E8DEB8"/>
  <rect x="-112" y="40" width="224" height="5" fill="#E4DAB4"/>
  <!-- shield -->
  <path d="M-18,48 L18,48 L21,64 Q0,79 -21,64 Z" fill="#C9A84C"/>
  <path d="M-13,52 L13,52 L15.5,64 Q0,75 -15.5,64 Z" fill="#2D2060"/>
  <polygon points="0,56 2,63 7.5,63 3,66 5,73 0,70 -5,73 -3,66 -7.5,63 -2,63" fill="#C9A84C"/>
</g>

<!-- CAPITOL purple -->
<g id="CAPP">
  <rect x="-3" y="-131" width="6" height="12" rx="1.5" fill="#2D2060"/>
  <ellipse cx="0" cy="-131" rx="5.5" ry="3.5" fill="#2D2060"/>
  <path d="M-40,-78 Q-40,-125 0,-131 Q40,-125 40,-78 Z" fill="#2D2060"/>
  <path d="M-24,-78 Q-25,-104 0,-128" stroke="#4A3A9E" stroke-width="0.9" fill="none"/>
  <path d="M-12,-78 Q-12,-113 0,-129" stroke="#4A3A9E" stroke-width="0.9" fill="none"/>
  <path d="M12,-78 Q12,-113 0,-129" stroke="#4A3A9E" stroke-width="0.9" fill="none"/>
  <path d="M24,-78 Q25,-104 0,-128" stroke="#4A3A9E" stroke-width="0.9" fill="none"/>
  <rect x="-30" y="-80" width="60" height="10" rx="1" fill="#3D2E8A"/>
  <rect x="-30" y="-80" width="60" height="2.5" fill="#C9A84C" opacity="0.7"/>
  <rect x="-76" y="-70" width="152" height="8" fill="#2D2060"/>
  <rect x="-80" y="-62" width="160" height="5.5" fill="#C9A84C"/>
  <rect x="-84" y="-56.5" width="168" height="7" fill="#2D2060"/>
  <polygon points="-88,-49.5 0,-78 88,-49.5" fill="#3D2E8A"/>
  <polyline points="-88,-49.5 0,-76 88,-49.5" stroke="#C9A84C" stroke-width="1.5" fill="none" stroke-linejoin="round"/>
  <rect x="-92" y="-49.5" width="184" height="7" fill="#2D2060"/>
  <rect x="-92" y="-49.5" width="184" height="2" fill="#C9A84C" opacity="0.5"/>
  <rect x="-14" y="-33" width="28" height="52" fill="#FAF7F0"/>
  <path d="M-14,-33 Q-14,-43 0,-43 Q14,-43 14,-33" fill="#FAF7F0"/>
  <rect x="-68" y="-28" width="17" height="37" fill="#FAF7F0"/>
  <rect x="51" y="-28" width="17" height="37" fill="#FAF7F0"/>
  <rect x="-92" y="-42.5" width="16" height="4.5" fill="#2D2060"/><rect x="-72" y="-42.5" width="16" height="4.5" fill="#2D2060"/>
  <rect x="-52" y="-42.5" width="16" height="4.5" fill="#2D2060"/><rect x="-32" y="-42.5" width="16" height="4.5" fill="#2D2060"/>
  <rect x="16" y="-42.5" width="16" height="4.5" fill="#2D2060"/><rect x="36" y="-42.5" width="16" height="4.5" fill="#2D2060"/>
  <rect x="56" y="-42.5" width="16" height="4.5" fill="#2D2060"/><rect x="76" y="-42.5" width="16" height="4.5" fill="#2D2060"/>
  <rect x="-90" y="-38" width="12" height="62" fill="#2D2060"/><rect x="-70" y="-38" width="12" height="62" fill="#2D2060"/>
  <rect x="-50" y="-38" width="12" height="62" fill="#2D2060"/><rect x="-30" y="-38" width="12" height="62" fill="#2D2060"/>
  <rect x="18" y="-38" width="12" height="62" fill="#2D2060"/><rect x="38" y="-38" width="12" height="62" fill="#2D2060"/>
  <rect x="58" y="-38" width="12" height="62" fill="#2D2060"/><rect x="78" y="-38" width="12" height="62" fill="#2D2060"/>
  <rect x="-92" y="24" width="16" height="4.5" fill="#2D2060"/><rect x="-72" y="24" width="16" height="4.5" fill="#2D2060"/>
  <rect x="-52" y="24" width="16" height="4.5" fill="#2D2060"/><rect x="-32" y="24" width="16" height="4.5" fill="#2D2060"/>
  <rect x="16" y="24" width="16" height="4.5" fill="#2D2060"/><rect x="36" y="24" width="16" height="4.5" fill="#2D2060"/>
  <rect x="56" y="24" width="16" height="4.5" fill="#2D2060"/><rect x="76" y="24" width="16" height="4.5" fill="#2D2060"/>
  <rect x="-100" y="28.5" width="200" height="6" fill="#2D2060"/>
  <rect x="-106" y="34.5" width="212" height="5.5" fill="#3D2E8A"/>
  <rect x="-112" y="40" width="224" height="5" fill="#4A3A9E"/>
  <path d="M-18,48 L18,48 L21,64 Q0,79 -21,64 Z" fill="#C9A84C"/>
  <path d="M-13,52 L13,52 L15.5,64 Q0,75 -15.5,64 Z" fill="#FAF7F0"/>
  <polygon points="0,56 2,63 7.5,63 3,66 5,73 0,70 -5,73 -3,66 -7.5,63 -2,63" fill="#C9A84C"/>
</g>

<!-- CAPITOL gold -->
<g id="CAPG">
  <rect x="-3" y="-131" width="6" height="12" rx="1.5" fill="#E8C87A"/>
  <ellipse cx="0" cy="-131" rx="5.5" ry="3.5" fill="#E8C87A"/>
  <path d="M-40,-78 Q-40,-125 0,-131 Q40,-125 40,-78 Z" fill="#C9A84C"/>
  <path d="M-24,-78 Q-25,-104 0,-128" stroke="#8A6200" stroke-width="0.9" fill="none"/>
  <path d="M-12,-78 Q-12,-113 0,-129" stroke="#8A6200" stroke-width="0.9" fill="none"/>
  <path d="M12,-78 Q12,-113 0,-129" stroke="#8A6200" stroke-width="0.9" fill="none"/>
  <path d="M24,-78 Q25,-104 0,-128" stroke="#8A6200" stroke-width="0.9" fill="none"/>
  <rect x="-30" y="-80" width="60" height="10" rx="1" fill="#B89030"/>
  <rect x="-30" y="-80" width="60" height="2.5" fill="#E8C87A" opacity="0.9"/>
  <rect x="-76" y="-70" width="152" height="8" fill="#C9A84C"/>
  <rect x="-80" y="-62" width="160" height="5.5" fill="#E8C87A"/>
  <rect x="-84" y="-56.5" width="168" height="7" fill="#C9A84C"/>
  <polygon points="-88,-49.5 0,-78 88,-49.5" fill="#B89030"/>
  <polyline points="-88,-49.5 0,-76 88,-49.5" stroke="#E8C87A" stroke-width="1.5" fill="none" stroke-linejoin="round"/>
  <rect x="-92" y="-49.5" width="184" height="7" fill="#C9A84C"/>
  <rect x="-14" y="-33" width="28" height="52" fill="#140E04"/>
  <path d="M-14,-33 Q-14,-43 0,-43 Q14,-43 14,-33" fill="#140E04"/>
  <rect x="-68" y="-28" width="17" height="37" fill="#140E04"/>
  <rect x="51" y="-28" width="17" height="37" fill="#140E04"/>
  <rect x="-92" y="-42.5" width="16" height="4.5" fill="#C9A84C"/><rect x="-72" y="-42.5" width="16" height="4.5" fill="#C9A84C"/>
  <rect x="-52" y="-42.5" width="16" height="4.5" fill="#C9A84C"/><rect x="-32" y="-42.5" width="16" height="4.5" fill="#C9A84C"/>
  <rect x="16" y="-42.5" width="16" height="4.5" fill="#C9A84C"/><rect x="36" y="-42.5" width="16" height="4.5" fill="#C9A84C"/>
  <rect x="56" y="-42.5" width="16" height="4.5" fill="#C9A84C"/><rect x="76" y="-42.5" width="16" height="4.5" fill="#C9A84C"/>
  <rect x="-90" y="-38" width="12" height="62" fill="#C9A84C"/><rect x="-70" y="-38" width="12" height="62" fill="#B89030"/>
  <rect x="-50" y="-38" width="12" height="62" fill="#C9A84C"/><rect x="-30" y="-38" width="12" height="62" fill="#B89030"/>
  <rect x="18" y="-38" width="12" height="62" fill="#C9A84C"/><rect x="38" y="-38" width="12" height="62" fill="#B89030"/>
  <rect x="58" y="-38" width="12" height="62" fill="#C9A84C"/><rect x="78" y="-38" width="12" height="62" fill="#B89030"/>
  <rect x="-92" y="24" width="16" height="4.5" fill="#C9A84C"/><rect x="-72" y="24" width="16" height="4.5" fill="#C9A84C"/>
  <rect x="-52" y="24" width="16" height="4.5" fill="#C9A84C"/><rect x="-32" y="24" width="16" height="4.5" fill="#C9A84C"/>
  <rect x="16" y="24" width="16" height="4.5" fill="#C9A84C"/><rect x="36" y="24" width="16" height="4.5" fill="#C9A84C"/>
  <rect x="56" y="24" width="16" height="4.5" fill="#C9A84C"/><rect x="76" y="24" width="16" height="4.5" fill="#C9A84C"/>
  <rect x="-100" y="28.5" width="200" height="6" fill="#C9A84C"/>
  <rect x="-106" y="34.5" width="212" height="5.5" fill="#B89030"/>
  <rect x="-112" y="40" width="224" height="5" fill="#A07820"/>
  <path d="M-18,48 L18,48 L21,64 Q0,79 -21,64 Z" fill="#E8C87A"/>
  <path d="M-13,52 L13,52 L15.5,64 Q0,75 -15.5,64 Z" fill="#140E04"/>
  <polygon points="0,56 2,63 7.5,63 3,66 5,73 0,70 -5,73 -3,66 -7.5,63 -2,63" fill="#E8C87A"/>
</g>

<!-- LEFT LAUREL purple -->
<g id="LLP">
  <path d="M-71,99 C-83,79 -103,52 -124,-35" stroke="#C9A84C" stroke-width="1.8" fill="none" stroke-linecap="round"/>
  <circle cx="-65" cy="102" r="4.5" fill="#C9A84C"/><circle cx="-73" cy="110" r="3" fill="#C9A84C"/><circle cx="-57" cy="110" r="3" fill="#C9A84C"/><circle cx="-65" cy="117" r="2" fill="#C9A84C"/>
  <g transform="rotate(-13,-80,70)"><ellipse cx="-80" cy="70" rx="18" ry="5.5" fill="#2D2060"/></g>
  <g transform="rotate(8,-85,84)"><ellipse cx="-85" cy="84" rx="17" ry="5.2" fill="#3D2E8A"/></g>
  <g transform="rotate(-28,-97,57)"><ellipse cx="-97" cy="57" rx="17" ry="5.2" fill="#2D2060"/></g>
  <g transform="rotate(-3,-102,70)"><ellipse cx="-102" cy="70" rx="16" ry="4.8" fill="#3D2E8A"/></g>
  <g transform="rotate(-43,-104,43)"><ellipse cx="-104" cy="43" rx="16" ry="4.8" fill="#2D2060"/></g>
  <g transform="rotate(-13,-109,56)"><ellipse cx="-109" cy="56" rx="15" ry="4.4" fill="#3D2E8A"/></g>
  <g transform="rotate(-58,-111,29)"><ellipse cx="-111" cy="29" rx="15" ry="4.4" fill="#2D2060"/></g>
  <g transform="rotate(-23,-115,41)"><ellipse cx="-115" cy="41" rx="14" ry="4.1" fill="#3D2E8A"/></g>
  <g transform="rotate(-71,-116,14)"><ellipse cx="-116" cy="14" rx="14" ry="4.1" fill="#2D2060"/></g>
  <g transform="rotate(-32,-119,26)"><ellipse cx="-119" cy="26" rx="13" ry="3.8" fill="#3D2E8A"/></g>
  <g transform="rotate(-80,-119,0)"><ellipse cx="-119" cy="0" rx="13" ry="3.8" fill="#2D2060"/></g>
  <g transform="rotate(-41,-121,12)"><ellipse cx="-121" cy="12" rx="12" ry="3.5" fill="#3D2E8A"/></g>
  <g transform="rotate(-86,-121,-13)"><ellipse cx="-121" cy="-13" rx="11.5" ry="3.3" fill="#2D2060"/></g>
  <g transform="rotate(-48,-122,-2)"><ellipse cx="-122" cy="-2" rx="11" ry="3.1" fill="#3D2E8A"/></g>
  <g transform="rotate(-90,-122,-26)"><ellipse cx="-122" cy="-26" rx="10.5" ry="3" fill="#2D2060"/></g>
</g>
<g id="LRP">
  <path d="M71,99 C83,79 103,52 124,-35" stroke="#C9A84C" stroke-width="1.8" fill="none" stroke-linecap="round"/>
  <circle cx="65" cy="102" r="4.5" fill="#C9A84C"/><circle cx="73" cy="110" r="3" fill="#C9A84C"/><circle cx="57" cy="110" r="3" fill="#C9A84C"/><circle cx="65" cy="117" r="2" fill="#C9A84C"/>
  <g transform="rotate(13,80,70)"><ellipse cx="80" cy="70" rx="18" ry="5.5" fill="#2D2060"/></g>
  <g transform="rotate(-8,85,84)"><ellipse cx="85" cy="84" rx="17" ry="5.2" fill="#3D2E8A"/></g>
  <g transform="rotate(28,97,57)"><ellipse cx="97" cy="57" rx="17" ry="5.2" fill="#2D2060"/></g>
  <g transform="rotate(3,102,70)"><ellipse cx="102" cy="70" rx="16" ry="4.8" fill="#3D2E8A"/></g>
  <g transform="rotate(43,104,43)"><ellipse cx="104" cy="43" rx="16" ry="4.8" fill="#2D2060"/></g>
  <g transform="rotate(13,109,56)"><ellipse cx="109" cy="56" rx="15" ry="4.4" fill="#3D2E8A"/></g>
  <g transform="rotate(58,111,29)"><ellipse cx="111" cy="29" rx="15" ry="4.4" fill="#2D2060"/></g>
  <g transform="rotate(23,115,41)"><ellipse cx="115" cy="41" rx="14" ry="4.1" fill="#3D2E8A"/></g>
  <g transform="rotate(71,116,14)"><ellipse cx="116" cy="14" rx="14" ry="4.1" fill="#2D2060"/></g>
  <g transform="rotate(32,119,26)"><ellipse cx="119" cy="26" rx="13" ry="3.8" fill="#3D2E8A"/></g>
  <g transform="rotate(80,119,0)"><ellipse cx="119" cy="0" rx="13" ry="3.8" fill="#2D2060"/></g>
  <g transform="rotate(41,121,12)"><ellipse cx="121" cy="12" rx="12" ry="3.5" fill="#3D2E8A"/></g>
  <g transform="rotate(86,121,-13)"><ellipse cx="121" cy="-13" rx="11.5" ry="3.3" fill="#2D2060"/></g>
  <g transform="rotate(48,122,-2)"><ellipse cx="122" cy="-2" rx="11" ry="3.1" fill="#3D2E8A"/></g>
  <g transform="rotate(90,122,-26)"><ellipse cx="122" cy="-26" rx="10.5" ry="3" fill="#2D2060"/></g>
</g>

<!-- LEFT/RIGHT LAUREL GOLD -->
<g id="LLG">
  <path d="M-71,99 C-83,79 -103,52 -124,-35" stroke="#E8C87A" stroke-width="1.8" fill="none" stroke-linecap="round"/>
  <circle cx="-65" cy="102" r="4.5" fill="#E8C87A"/><circle cx="-73" cy="110" r="3" fill="#C9A84C"/><circle cx="-57" cy="110" r="3" fill="#C9A84C"/><circle cx="-65" cy="117" r="2" fill="#C9A84C"/>
  <g transform="rotate(-13,-80,70)"><ellipse cx="-80" cy="70" rx="18" ry="5.5" fill="#C9A84C"/></g>
  <g transform="rotate(8,-85,84)"><ellipse cx="-85" cy="84" rx="17" ry="5.2" fill="#B89030"/></g>
  <g transform="rotate(-28,-97,57)"><ellipse cx="-97" cy="57" rx="17" ry="5.2" fill="#C9A84C"/></g>
  <g transform="rotate(-43,-104,43)"><ellipse cx="-104" cy="43" rx="16" ry="4.8" fill="#B89030"/></g>
  <g transform="rotate(-58,-111,29)"><ellipse cx="-111" cy="29" rx="15" ry="4.4" fill="#C9A84C"/></g>
  <g transform="rotate(-71,-116,14)"><ellipse cx="-116" cy="14" rx="14" ry="4.1" fill="#B89030"/></g>
  <g transform="rotate(-80,-119,0)"><ellipse cx="-119" cy="0" rx="13" ry="3.8" fill="#C9A84C"/></g>
  <g transform="rotate(-86,-121,-13)"><ellipse cx="-121" cy="-13" rx="11.5" ry="3.3" fill="#B89030"/></g>
  <g transform="rotate(-90,-122,-26)"><ellipse cx="-122" cy="-26" rx="10.5" ry="3" fill="#C9A84C"/></g>
</g>
<g id="LRG">
  <path d="M71,99 C83,79 103,52 124,-35" stroke="#E8C87A" stroke-width="1.8" fill="none" stroke-linecap="round"/>
  <circle cx="65" cy="102" r="4.5" fill="#E8C87A"/><circle cx="73" cy="110" r="3" fill="#C9A84C"/><circle cx="57" cy="110" r="3" fill="#C9A84C"/><circle cx="65" cy="117" r="2" fill="#C9A84C"/>
  <g transform="rotate(13,80,70)"><ellipse cx="80" cy="70" rx="18" ry="5.5" fill="#C9A84C"/></g>
  <g transform="rotate(-8,85,84)"><ellipse cx="85" cy="84" rx="17" ry="5.2" fill="#B89030"/></g>
  <g transform="rotate(28,97,57)"><ellipse cx="97" cy="57" rx="17" ry="5.2" fill="#C9A84C"/></g>
  <g transform="rotate(43,104,43)"><ellipse cx="104" cy="43" rx="16" ry="4.8" fill="#B89030"/></g>
  <g transform="rotate(58,111,29)"><ellipse cx="111" cy="29" rx="15" ry="4.4" fill="#C9A84C"/></g>
  <g transform="rotate(71,116,14)"><ellipse cx="116" cy="14" rx="14" ry="4.1" fill="#B89030"/></g>
  <g transform="rotate(80,119,0)"><ellipse cx="119" cy="0" rx="13" ry="3.8" fill="#C9A84C"/></g>
  <g transform="rotate(86,121,-13)"><ellipse cx="121" cy="-13" rx="11.5" ry="3.3" fill="#B89030"/></g>
  <g transform="rotate(90,122,-26)"><ellipse cx="122" cy="-26" rx="10.5" ry="3" fill="#C9A84C"/></g>
</g>

<!-- GOLD RULE centered at origin -->
<g id="GR">
  <line x1="-158" y1="0" x2="-20" y2="0" stroke="#C9A84C" stroke-width="1.2"/>
  <line x1="20" y1="0" x2="158" y2="0" stroke="#C9A84C" stroke-width="1.2"/>
  <polygon points="0,-6 7,0 0,6 -7,0" fill="#C9A84C"/>
  <circle cx="-158" cy="0" r="3" fill="#C9A84C"/>
  <circle cx="158" cy="0" r="3" fill="#C9A84C"/>
</g>
</defs>

<!-- ══════════════════════════════════════════════════════════ -->
<!-- VAR 1 — PRIMARY (deep purple)                             -->
<!-- Card: y=20 h=420. Mark center at (340, 225). Rule at 315 -->
<!-- ══════════════════════════════════════════════════════════ -->
<rect x="24" y="20" width="632" height="420" rx="10" fill="#2D2060" style="fill:rgb(45, 32, 96);stroke:none;color:rgb(255, 255, 255);stroke-width:1px;stroke-linecap:butt;stroke-linejoin:miter;opacity:1;font-family:&quot;Anthropic Sans&quot;, -apple-system, &quot;system-ui&quot;, &quot;Segoe UI&quot;, sans-serif;font-size:16px;font-weight:400;text-anchor:start;dominant-baseline:auto"/>
<rect x="24" y="20" width="632" height="3.5" fill="#C9A84C" style="fill:rgb(201, 168, 76);stroke:none;color:rgb(255, 255, 255);stroke-width:1px;stroke-linecap:butt;stroke-linejoin:miter;opacity:1;font-family:&quot;Anthropic Sans&quot;, -apple-system, &quot;system-ui&quot;, &quot;Segoe UI&quot;, sans-serif;font-size:16px;font-weight:400;text-anchor:start;dominant-baseline:auto"/>
<rect x="24" y="436.5" width="632" height="3.5" fill="#C9A84C" style="fill:rgb(201, 168, 76);stroke:none;color:rgb(255, 255, 255);stroke-width:1px;stroke-linecap:butt;stroke-linejoin:miter;opacity:1;font-family:&quot;Anthropic Sans&quot;, -apple-system, &quot;system-ui&quot;, &quot;Segoe UI&quot;, sans-serif;font-size:16px;font-weight:400;text-anchor:start;dominant-baseline:auto"/>
<use href="#LL" transform="translate(340,225)" style="fill:rgb(0, 0, 0);stroke:none;color:rgb(255, 255, 255);stroke-width:1px;stroke-linecap:butt;stroke-linejoin:miter;opacity:1;font-family:&quot;Anthropic Sans&quot;, -apple-system, &quot;system-ui&quot;, &quot;Segoe UI&quot;, sans-serif;font-size:16px;font-weight:400;text-anchor:start;dominant-baseline:auto"/>
<use href="#LR" transform="translate(340,225)" style="fill:rgb(0, 0, 0);stroke:none;color:rgb(255, 255, 255);stroke-width:1px;stroke-linecap:butt;stroke-linejoin:miter;opacity:1;font-family:&quot;Anthropic Sans&quot;, -apple-system, &quot;system-ui&quot;, &quot;Segoe UI&quot;, sans-serif;font-size:16px;font-weight:400;text-anchor:start;dominant-baseline:auto"/>
<use href="#CAP" transform="translate(340,225)" style="fill:rgb(0, 0, 0);stroke:none;color:rgb(255, 255, 255);stroke-width:1px;stroke-linecap:butt;stroke-linejoin:miter;opacity:1;font-family:&quot;Anthropic Sans&quot;, -apple-system, &quot;system-ui&quot;, &quot;Segoe UI&quot;, sans-serif;font-size:16px;font-weight:400;text-anchor:start;dominant-baseline:auto"/>
<use href="#GR" transform="translate(340,318)" style="fill:rgb(0, 0, 0);stroke:none;color:rgb(255, 255, 255);stroke-width:1px;stroke-linecap:butt;stroke-linejoin:miter;opacity:1;font-family:&quot;Anthropic Sans&quot;, -apple-system, &quot;system-ui&quot;, &quot;Segoe UI&quot;, sans-serif;font-size:16px;font-weight:400;text-anchor:start;dominant-baseline:auto"/>
<text x="340" y="360" text-anchor="middle" font-size="44" fill="#EDE4CC" style="fill:rgb(237, 228, 204);stroke:none;color:rgb(255, 255, 255);stroke-width:1px;stroke-linecap:butt;stroke-linejoin:miter;opacity:1;font-family:&quot;Cormorant Garamond&quot;, Georgia, serif;font-size:44px;font-weight:700;text-anchor:middle;dominant-baseline:auto">HERITAGE</text>
<text x="340" y="390" text-anchor="middle" font-size="13" fill="#C9A84C" style="fill:rgb(201, 168, 76);stroke:none;color:rgb(255, 255, 255);stroke-width:1px;stroke-linecap:butt;stroke-linejoin:miter;opacity:1;font-family:&quot;Cormorant SC&quot;, Georgia, serif;font-size:13px;font-weight:500;text-anchor:middle;dominant-baseline:auto">LIFE  SOLUTIONS</text>
<text x="340" y="453" text-anchor="middle" fill="#8070B8" style="fill:rgb(128, 112, 184);stroke:none;color:rgb(255, 255, 255);stroke-width:1px;stroke-linecap:butt;stroke-linejoin:miter;opacity:1;font-family:&quot;Helvetica Neue&quot;, Helvetica, sans-serif;font-size:8px;font-weight:400;text-anchor:middle;dominant-baseline:auto">PRIMARY  —  DARK BACKGROUNDS  ·  PDF DOCUMENTS  ·  OFFICIAL PRINT</text>

<!-- ══════════════════════════════════════════════════════════ -->
<!-- VAR 2 — SECONDARY (cream/light)                          -->
<!-- Card: y=473 h=420. Mark center at (340, 678).            -->
<!-- ══════════════════════════════════════════════════════════ -->
<rect x="24" y="473" width="632" height="420" rx="10" fill="#FAF7F0" stroke="#DDD4B8" stroke-width="1" style="fill:rgb(250, 247, 240);stroke:rgb(221, 212, 184);color:rgb(255, 255, 255);stroke-width:1px;stroke-linecap:butt;stroke-linejoin:miter;opacity:1;font-family:&quot;Anthropic Sans&quot;, -apple-system, &quot;system-ui&quot;, &quot;Segoe UI&quot;, sans-serif;font-size:16px;font-weight:400;text-anchor:start;dominant-baseline:auto"/>
<rect x="24" y="473" width="632" height="3.5" fill="#2D2060" style="fill:rgb(45, 32, 96);stroke:none;color:rgb(255, 255, 255);stroke-width:1px;stroke-linecap:butt;stroke-linejoin:miter;opacity:1;font-family:&quot;Anthropic Sans&quot;, -apple-system, &quot;system-ui&quot;, &quot;Segoe UI&quot;, sans-serif;font-size:16px;font-weight:400;text-anchor:start;dominant-baseline:auto"/>
<rect x="24" y="889.5" width="632" height="3.5" fill="#2D2060" style="fill:rgb(45, 32, 96);stroke:none;color:rgb(255, 255, 255);stroke-width:1px;stroke-linecap:butt;stroke-linejoin:miter;opacity:1;font-family:&quot;Anthropic Sans&quot;, -apple-system, &quot;system-ui&quot;, &quot;Segoe UI&quot;, sans-serif;font-size:16px;font-weight:400;text-anchor:start;dominant-baseline:auto"/>
<use href="#LLP" transform="translate(340,678)" style="fill:rgb(0, 0, 0);stroke:none;color:rgb(255, 255, 255);stroke-width:1px;stroke-linecap:butt;stroke-linejoin:miter;opacity:1;font-family:&quot;Anthropic Sans&quot;, -apple-system, &quot;system-ui&quot;, &quot;Segoe UI&quot;, sans-serif;font-size:16px;font-weight:400;text-anchor:start;dominant-baseline:auto"/>
<use href="#LRP" transform="translate(340,678)" style="fill:rgb(0, 0, 0);stroke:none;color:rgb(255, 255, 255);stroke-width:1px;stroke-linecap:butt;stroke-linejoin:miter;opacity:1;font-family:&quot;Anthropic Sans&quot;, -apple-system, &quot;system-ui&quot;, &quot;Segoe UI&quot;, sans-serif;font-size:16px;font-weight:400;text-anchor:start;dominant-baseline:auto"/>
<use href="#CAPP" transform="translate(340,678)" style="fill:rgb(0, 0, 0);stroke:none;color:rgb(255, 255, 255);stroke-width:1px;stroke-linecap:butt;stroke-linejoin:miter;opacity:1;font-family:&quot;Anthropic Sans&quot;, -apple-system, &quot;system-ui&quot;, &quot;Segoe UI&quot;, sans-serif;font-size:16px;font-weight:400;text-anchor:start;dominant-baseline:auto"/>
<use href="#GR" transform="translate(340,771)" style="fill:rgb(0, 0, 0);stroke:none;color:rgb(255, 255, 255);stroke-width:1px;stroke-linecap:butt;stroke-linejoin:miter;opacity:1;font-family:&quot;Anthropic Sans&quot;, -apple-system, &quot;system-ui&quot;, &quot;Segoe UI&quot;, sans-serif;font-size:16px;font-weight:400;text-anchor:start;dominant-baseline:auto"/>
<text x="340" y="813" text-anchor="middle" font-size="44" fill="#2D2060" style="fill:rgb(45, 32, 96);stroke:none;color:rgb(255, 255, 255);stroke-width:1px;stroke-linecap:butt;stroke-linejoin:miter;opacity:1;font-family:&quot;Cormorant Garamond&quot;, Georgia, serif;font-size:44px;font-weight:700;text-anchor:middle;dominant-baseline:auto">HERITAGE</text>
<text x="340" y="843" text-anchor="middle" font-size="13" fill="#C9A84C" style="fill:rgb(201, 168, 76);stroke:none;color:rgb(255, 255, 255);stroke-width:1px;stroke-linecap:butt;stroke-linejoin:miter;opacity:1;font-family:&quot;Cormorant SC&quot;, Georgia, serif;font-size:13px;font-weight:500;text-anchor:middle;dominant-baseline:auto">LIFE  SOLUTIONS</text>
<text x="340" y="906" text-anchor="middle" fill="#8070B8" style="fill:rgb(128, 112, 184);stroke:none;color:rgb(255, 255, 255);stroke-width:1px;stroke-linecap:butt;stroke-linejoin:miter;opacity:1;font-family:&quot;Helvetica Neue&quot;, Helvetica, sans-serif;font-size:8px;font-weight:400;text-anchor:middle;dominant-baseline:auto">SECONDARY  —  LIGHT BACKGROUNDS  ·  WEBSITE HEADER  ·  STATIONERY</text>

<!-- ══════════════════════════════════════════════════════════ -->
<!-- VAR 3 — HORIZONTAL (dark, biz card)                      -->
<!-- Card: y=926 h=200. Mark at x=148 y=1026 scale 0.5        -->
<!-- Divider at x=232. Wordmark center x=455 y=1026           -->
<!-- ══════════════════════════════════════════════════════════ -->
<rect x="24" y="926" width="632" height="200" rx="10" fill="#2D2060" style="fill:rgb(45, 32, 96);stroke:none;color:rgb(255, 255, 255);stroke-width:1px;stroke-linecap:butt;stroke-linejoin:miter;opacity:1;font-family:&quot;Anthropic Sans&quot;, -apple-system, &quot;system-ui&quot;, &quot;Segoe UI&quot;, sans-serif;font-size:16px;font-weight:400;text-anchor:start;dominant-baseline:auto"/>
<rect x="24" y="926" width="632" height="3.5" fill="#C9A84C" style="fill:rgb(201, 168, 76);stroke:none;color:rgb(255, 255, 255);stroke-width:1px;stroke-linecap:butt;stroke-linejoin:miter;opacity:1;font-family:&quot;Anthropic Sans&quot;, -apple-system, &quot;system-ui&quot;, &quot;Segoe UI&quot;, sans-serif;font-size:16px;font-weight:400;text-anchor:start;dominant-baseline:auto"/>
<rect x="24" y="1122.5" width="632" height="3.5" fill="#C9A84C" style="fill:rgb(201, 168, 76);stroke:none;color:rgb(255, 255, 255);stroke-width:1px;stroke-linecap:butt;stroke-linejoin:miter;opacity:1;font-family:&quot;Anthropic Sans&quot;, -apple-system, &quot;system-ui&quot;, &quot;Segoe UI&quot;, sans-serif;font-size:16px;font-weight:400;text-anchor:start;dominant-baseline:auto"/>
<g transform="translate(148,1026) scale(0.5)" style="fill:rgb(0, 0, 0);stroke:none;color:rgb(255, 255, 255);stroke-width:1px;stroke-linecap:butt;stroke-linejoin:miter;opacity:1;font-family:&quot;Anthropic Sans&quot;, -apple-system, &quot;system-ui&quot;, &quot;Segoe UI&quot;, sans-serif;font-size:16px;font-weight:400;text-anchor:start;dominant-baseline:auto">
  <use href="#LL" style="fill:rgb(0, 0, 0);stroke:none;color:rgb(255, 255, 255);stroke-width:1px;stroke-linecap:butt;stroke-linejoin:miter;opacity:1;font-family:&quot;Anthropic Sans&quot;, -apple-system, &quot;system-ui&quot;, &quot;Segoe UI&quot;, sans-serif;font-size:16px;font-weight:400;text-anchor:start;dominant-baseline:auto"/><use href="#LR" style="fill:rgb(0, 0, 0);stroke:none;color:rgb(255, 255, 255);stroke-width:1px;stroke-linecap:butt;stroke-linejoin:miter;opacity:1;font-family:&quot;Anthropic Sans&quot;, -apple-system, &quot;system-ui&quot;, &quot;Segoe UI&quot;, sans-serif;font-size:16px;font-weight:400;text-anchor:start;dominant-baseline:auto"/><use href="#CAP" style="fill:rgb(0, 0, 0);stroke:none;color:rgb(255, 255, 255);stroke-width:1px;stroke-linecap:butt;stroke-linejoin:miter;opacity:1;font-family:&quot;Anthropic Sans&quot;, -apple-system, &quot;system-ui&quot;, &quot;Segoe UI&quot;, sans-serif;font-size:16px;font-weight:400;text-anchor:start;dominant-baseline:auto"/>
</g>
<rect x="232" y="944" width="2" height="164" fill="#C9A84C" style="fill:rgb(201, 168, 76);stroke:none;color:rgb(255, 255, 255);stroke-width:1px;stroke-linecap:butt;stroke-linejoin:miter;opacity:1;font-family:&quot;Anthropic Sans&quot;, -apple-system, &quot;system-ui&quot;, &quot;Segoe UI&quot;, sans-serif;font-size:16px;font-weight:400;text-anchor:start;dominant-baseline:auto"/>
<text x="455" y="1010" text-anchor="middle" font-size="42" fill="#EDE4CC" style="fill:rgb(237, 228, 204);stroke:none;color:rgb(255, 255, 255);stroke-width:1px;stroke-linecap:butt;stroke-linejoin:miter;opacity:1;font-family:&quot;Cormorant Garamond&quot;, Georgia, serif;font-size:42px;font-weight:700;text-anchor:middle;dominant-baseline:auto">HERITAGE</text>
<text x="455" y="1040" text-anchor="middle" font-size="12.5" fill="#C9A84C" style="fill:rgb(201, 168, 76);stroke:none;color:rgb(255, 255, 255);stroke-width:1px;stroke-linecap:butt;stroke-linejoin:miter;opacity:1;font-family:&quot;Cormorant SC&quot;, Georgia, serif;font-size:12.5px;font-weight:500;text-anchor:middle;dominant-baseline:auto">LIFE  SOLUTIONS</text>
<text x="340" y="1140" text-anchor="middle" fill="#8070B8" style="fill:rgb(128, 112, 184);stroke:none;color:rgb(255, 255, 255);stroke-width:1px;stroke-linecap:butt;stroke-linejoin:miter;opacity:1;font-family:&quot;Helvetica Neue&quot;, Helvetica, sans-serif;font-size:8px;font-weight:400;text-anchor:middle;dominant-baseline:auto">HORIZONTAL  —  BUSINESS CARDS  ·  EMAIL HEADERS  ·  LETTERHEAD</text>

<!-- ══════════════════════════════════════════════════════════ -->
<!-- VAR 4 — MARK ONLY (icon / avatar)                        -->
<!-- Card: x=24 y=1160 w=308 h=340                            -->
<!-- Mark center: (24+154, 1160+155) = (178,1315) scale 0.58  -->
<!-- Wordmark below: y≈1440                                   -->
<!-- ══════════════════════════════════════════════════════════ -->
<rect x="24" y="1160" width="308" height="420" rx="10" fill="#2D2060" style="fill:rgb(45, 32, 96);stroke:none;color:rgb(255, 255, 255);stroke-width:1px;stroke-linecap:butt;stroke-linejoin:miter;opacity:1;font-family:&quot;Anthropic Sans&quot;, -apple-system, &quot;system-ui&quot;, &quot;Segoe UI&quot;, sans-serif;font-size:16px;font-weight:400;text-anchor:start;dominant-baseline:auto"/>
<rect x="24" y="1160" width="308" height="3.5" fill="#C9A84C" style="fill:rgb(201, 168, 76);stroke:none;color:rgb(255, 255, 255);stroke-width:1px;stroke-linecap:butt;stroke-linejoin:miter;opacity:1;font-family:&quot;Anthropic Sans&quot;, -apple-system, &quot;system-ui&quot;, &quot;Segoe UI&quot;, sans-serif;font-size:16px;font-weight:400;text-anchor:start;dominant-baseline:auto"/>
<rect x="24" y="1576.5" width="308" height="3.5" fill="#C9A84C" style="fill:rgb(201, 168, 76);stroke:none;color:rgb(255, 255, 255);stroke-width:1px;stroke-linecap:butt;stroke-linejoin:miter;opacity:1;font-family:&quot;Anthropic Sans&quot;, -apple-system, &quot;system-ui&quot;, &quot;Segoe UI&quot;, sans-serif;font-size:16px;font-weight:400;text-anchor:start;dominant-baseline:auto"/>
<g transform="translate(178,1340) scale(0.62)" style="fill:rgb(0, 0, 0);stroke:none;color:rgb(255, 255, 255);stroke-width:1px;stroke-linecap:butt;stroke-linejoin:miter;opacity:1;font-family:&quot;Anthropic Sans&quot;, -apple-system, &quot;system-ui&quot;, &quot;Segoe UI&quot;, sans-serif;font-size:16px;font-weight:400;text-anchor:start;dominant-baseline:auto">
  <use href="#LL" style="fill:rgb(0, 0, 0);stroke:none;color:rgb(255, 255, 255);stroke-width:1px;stroke-linecap:butt;stroke-linejoin:miter;opacity:1;font-family:&quot;Anthropic Sans&quot;, -apple-system, &quot;system-ui&quot;, &quot;Segoe UI&quot;, sans-serif;font-size:16px;font-weight:400;text-anchor:start;dominant-baseline:auto"/><use href="#LR" style="fill:rgb(0, 0, 0);stroke:none;color:rgb(255, 255, 255);stroke-width:1px;stroke-linecap:butt;stroke-linejoin:miter;opacity:1;font-family:&quot;Anthropic Sans&quot;, -apple-system, &quot;system-ui&quot;, &quot;Segoe UI&quot;, sans-serif;font-size:16px;font-weight:400;text-anchor:start;dominant-baseline:auto"/><use href="#CAP" style="fill:rgb(0, 0, 0);stroke:none;color:rgb(255, 255, 255);stroke-width:1px;stroke-linecap:butt;stroke-linejoin:miter;opacity:1;font-family:&quot;Anthropic Sans&quot;, -apple-system, &quot;system-ui&quot;, &quot;Segoe UI&quot;, sans-serif;font-size:16px;font-weight:400;text-anchor:start;dominant-baseline:auto"/>
</g>
<use href="#GR" transform="translate(178,1440) scale(0.55)" style="fill:rgb(0, 0, 0);stroke:none;color:rgb(255, 255, 255);stroke-width:1px;stroke-linecap:butt;stroke-linejoin:miter;opacity:1;font-family:&quot;Anthropic Sans&quot;, -apple-system, &quot;system-ui&quot;, &quot;Segoe UI&quot;, sans-serif;font-size:16px;font-weight:400;text-anchor:start;dominant-baseline:auto"/>
<text x="178" y="1472" text-anchor="middle" font-size="28" fill="#EDE4CC" style="fill:rgb(237, 228, 204);stroke:none;color:rgb(255, 255, 255);stroke-width:1px;stroke-linecap:butt;stroke-linejoin:miter;opacity:1;font-family:&quot;Cormorant Garamond&quot;, Georgia, serif;font-size:28px;font-weight:700;text-anchor:middle;dominant-baseline:auto">HERITAGE</text>
<text x="178" y="1496" text-anchor="middle" font-size="9" fill="#C9A84C" style="fill:rgb(201, 168, 76);stroke:none;color:rgb(255, 255, 255);stroke-width:1px;stroke-linecap:butt;stroke-linejoin:miter;opacity:1;font-family:&quot;Cormorant SC&quot;, Georgia, serif;font-size:9px;font-weight:500;text-anchor:middle;dominant-baseline:auto">LIFE  SOLUTIONS</text>
<text x="178" y="1593" text-anchor="middle" fill="#8070B8" style="fill:rgb(128, 112, 184);stroke:none;color:rgb(255, 255, 255);stroke-width:1px;stroke-linecap:butt;stroke-linejoin:miter;opacity:1;font-family:&quot;Helvetica Neue&quot;, Helvetica, sans-serif;font-size:8px;font-weight:400;text-anchor:middle;dominant-baseline:auto">MARK ONLY  —  SOCIAL MEDIA  ·  FAVICON  ·  APP ICON</text>

<!-- ══════════════════════════════════════════════════════════ -->
<!-- VAR 5 — ALL GOLD (foil / prestige)                       -->
<!-- Card: x=356 y=1160 w=300 h=420                           -->
<!-- Mark center: (356+150, 1160+155) = (506,1315) scale 0.58 -->
<!-- ══════════════════════════════════════════════════════════ -->
<rect x="356" y="1160" width="300" height="420" rx="10" fill="#140E04" style="fill:rgb(20, 14, 4);stroke:none;color:rgb(255, 255, 255);stroke-width:1px;stroke-linecap:butt;stroke-linejoin:miter;opacity:1;font-family:&quot;Anthropic Sans&quot;, -apple-system, &quot;system-ui&quot;, &quot;Segoe UI&quot;, sans-serif;font-size:16px;font-weight:400;text-anchor:start;dominant-baseline:auto"/>
<rect x="356" y="1160" width="300" height="3.5" fill="#C9A84C" style="fill:rgb(201, 168, 76);stroke:none;color:rgb(255, 255, 255);stroke-width:1px;stroke-linecap:butt;stroke-linejoin:miter;opacity:1;font-family:&quot;Anthropic Sans&quot;, -apple-system, &quot;system-ui&quot;, &quot;Segoe UI&quot;, sans-serif;font-size:16px;font-weight:400;text-anchor:start;dominant-baseline:auto"/>
<rect x="356" y="1576.5" width="300" height="3.5" fill="#C9A84C" style="fill:rgb(201, 168, 76);stroke:none;color:rgb(255, 255, 255);stroke-width:1px;stroke-linecap:butt;stroke-linejoin:miter;opacity:1;font-family:&quot;Anthropic Sans&quot;, -apple-system, &quot;system-ui&quot;, &quot;Segoe UI&quot;, sans-serif;font-size:16px;font-weight:400;text-anchor:start;dominant-baseline:auto"/>
<g transform="translate(506,1340) scale(0.62)" style="fill:rgb(0, 0, 0);stroke:none;color:rgb(255, 255, 255);stroke-width:1px;stroke-linecap:butt;stroke-linejoin:miter;opacity:1;font-family:&quot;Anthropic Sans&quot;, -apple-system, &quot;system-ui&quot;, &quot;Segoe UI&quot;, sans-serif;font-size:16px;font-weight:400;text-anchor:start;dominant-baseline:auto">
  <use href="#LLG" style="fill:rgb(0, 0, 0);stroke:none;color:rgb(255, 255, 255);stroke-width:1px;stroke-linecap:butt;stroke-linejoin:miter;opacity:1;font-family:&quot;Anthropic Sans&quot;, -apple-system, &quot;system-ui&quot;, &quot;Segoe UI&quot;, sans-serif;font-size:16px;font-weight:400;text-anchor:start;dominant-baseline:auto"/><use href="#LRG" style="fill:rgb(0, 0, 0);stroke:none;color:rgb(255, 255, 255);stroke-width:1px;stroke-linecap:butt;stroke-linejoin:miter;opacity:1;font-family:&quot;Anthropic Sans&quot;, -apple-system, &quot;system-ui&quot;, &quot;Segoe UI&quot;, sans-serif;font-size:16px;font-weight:400;text-anchor:start;dominant-baseline:auto"/><use href="#CAPG" style="fill:rgb(0, 0, 0);stroke:none;color:rgb(255, 255, 255);stroke-width:1px;stroke-linecap:butt;stroke-linejoin:miter;opacity:1;font-family:&quot;Anthropic Sans&quot;, -apple-system, &quot;system-ui&quot;, &quot;Segoe UI&quot;, sans-serif;font-size:16px;font-weight:400;text-anchor:start;dominant-baseline:auto"/>
</g>
<g id="GRG" style="fill:rgb(0, 0, 0);stroke:none;color:rgb(255, 255, 255);stroke-width:1px;stroke-linecap:butt;stroke-linejoin:miter;opacity:1;font-family:&quot;Anthropic Sans&quot;, -apple-system, &quot;system-ui&quot;, &quot;Segoe UI&quot;, sans-serif;font-size:16px;font-weight:400;text-anchor:start;dominant-baseline:auto">
  <line x1="356" y1="1440" x2="474" y2="1440" stroke="#C9A84C" stroke-width="1.2" style="fill:rgb(0, 0, 0);stroke:rgb(201, 168, 76);color:rgb(255, 255, 255);stroke-width:1.2px;stroke-linecap:butt;stroke-linejoin:miter;opacity:1;font-family:&quot;Anthropic Sans&quot;, -apple-system, &quot;system-ui&quot;, &quot;Segoe UI&quot;, sans-serif;font-size:16px;font-weight:400;text-anchor:start;dominant-baseline:auto"/>
  <line x1="538" y1="1440" x2="656" y2="1440" stroke="#C9A84C" stroke-width="1.2" style="fill:rgb(0, 0, 0);stroke:rgb(201, 168, 76);color:rgb(255, 255, 255);stroke-width:1.2px;stroke-linecap:butt;stroke-linejoin:miter;opacity:1;font-family:&quot;Anthropic Sans&quot;, -apple-system, &quot;system-ui&quot;, &quot;Segoe UI&quot;, sans-serif;font-size:16px;font-weight:400;text-anchor:start;dominant-baseline:auto"/>
  <polygon points="506,1434 513,1440 506,1446 499,1440" fill="#C9A84C" style="fill:rgb(201, 168, 76);stroke:none;color:rgb(255, 255, 255);stroke-width:1px;stroke-linecap:butt;stroke-linejoin:miter;opacity:1;font-family:&quot;Anthropic Sans&quot;, -apple-system, &quot;system-ui&quot;, &quot;Segoe UI&quot;, sans-serif;font-size:16px;font-weight:400;text-anchor:start;dominant-baseline:auto"/>
  <circle cx="356" cy="1440" r="3" fill="#C9A84C" style="fill:rgb(201, 168, 76);stroke:none;color:rgb(255, 255, 255);stroke-width:1px;stroke-linecap:butt;stroke-linejoin:miter;opacity:1;font-family:&quot;Anthropic Sans&quot;, -apple-system, &quot;system-ui&quot;, &quot;Segoe UI&quot;, sans-serif;font-size:16px;font-weight:400;text-anchor:start;dominant-baseline:auto"/>
  <circle cx="656" cy="1440" r="3" fill="#C9A84C" style="fill:rgb(201, 168, 76);stroke:none;color:rgb(255, 255, 255);stroke-width:1px;stroke-linecap:butt;stroke-linejoin:miter;opacity:1;font-family:&quot;Anthropic Sans&quot;, -apple-system, &quot;system-ui&quot;, &quot;Segoe UI&quot;, sans-serif;font-size:16px;font-weight:400;text-anchor:start;dominant-baseline:auto"/>
</g>
<text x="506" y="1472" text-anchor="middle" font-size="28" fill="#C9A84C" style="fill:rgb(201, 168, 76);stroke:none;color:rgb(255, 255, 255);stroke-width:1px;stroke-linecap:butt;stroke-linejoin:miter;opacity:1;font-family:&quot;Cormorant Garamond&quot;, Georgia, serif;font-size:28px;font-weight:700;text-anchor:middle;dominant-baseline:auto">HERITAGE</text>
<text x="506" y="1496" text-anchor="middle" font-size="9" fill="#B89030" style="fill:rgb(184, 144, 48);stroke:none;color:rgb(255, 255, 255);stroke-width:1px;stroke-linecap:butt;stroke-linejoin:miter;opacity:1;font-family:&quot;Cormorant SC&quot;, Georgia, serif;font-size:9px;font-weight:500;text-anchor:middle;dominant-baseline:auto">LIFE  SOLUTIONS</text>
<text x="506" y="1593" text-anchor="middle" fill="#8070B8" style="fill:rgb(128, 112, 184);stroke:none;color:rgb(255, 255, 255);stroke-width:1px;stroke-linecap:butt;stroke-linejoin:miter;opacity:1;font-family:&quot;Helvetica Neue&quot;, Helvetica, sans-serif;font-size:8px;font-weight:400;text-anchor:middle;dominant-baseline:auto">ALL GOLD  —  FOIL PRINT  ·  PREMIUM COLLATERAL  ·  AWARDS</text>

<!-- system footer -->
<text x="340" y="1650" text-anchor="middle" fill="#6050A0" style="fill:rgb(96, 80, 160);stroke:none;color:rgb(255, 255, 255);stroke-width:1px;stroke-linecap:butt;stroke-linejoin:miter;opacity:1;font-family:&quot;Helvetica Neue&quot;, Helvetica, sans-serif;font-size:8px;font-weight:400;text-anchor:middle;dominant-baseline:auto">HERITAGE LIFE SOLUTIONS  ·  COMPLETE LOGO SYSTEM  ·  5 VARIANTS</text>
<line x1="100" y1="1660" x2="280" y2="1660" stroke="#C9A84C" stroke-width="0.5" opacity="0.5" style="fill:rgb(0, 0, 0);stroke:rgb(201, 168, 76);color:rgb(255, 255, 255);stroke-width:0.5px;stroke-linecap:butt;stroke-linejoin:miter;opacity:0.5;font-family:&quot;Anthropic Sans&quot;, -apple-system, &quot;system-ui&quot;, &quot;Segoe UI&quot;, sans-serif;font-size:16px;font-weight:400;text-anchor:start;dominant-baseline:auto"/>
<circle cx="340" cy="1660" r="2.5" fill="#C9A84C" opacity="0.6" style="fill:rgb(201, 168, 76);stroke:none;color:rgb(255, 255, 255);stroke-width:1px;stroke-linecap:butt;stroke-linejoin:miter;opacity:0.6;font-family:&quot;Anthropic Sans&quot;, -apple-system, &quot;system-ui&quot;, &quot;Segoe UI&quot;, sans-serif;font-size:16px;font-weight:400;text-anchor:start;dominant-baseline:auto"/>
<line x1="400" y1="1660" x2="580" y2="1660" stroke="#C9A84C" stroke-width="0.5" opacity="0.5" style="fill:rgb(0, 0, 0);stroke:rgb(201, 168, 76);color:rgb(255, 255, 255);stroke-width:0.5px;stroke-linecap:butt;stroke-linejoin:miter;opacity:0.5;font-family:&quot;Anthropic Sans&quot;, -apple-system, &quot;system-ui&quot;, &quot;Segoe UI&quot;, sans-serif;font-size:16px;font-weight:400;text-anchor:start;dominant-baseline:auto"/>

</svg>